<?xml version="1.0" encoding="UTF-8"?>
<svg xmlns="http://www.w3.org/2000/svg" xmlns:xlink="http://www.w3.org/1999/xlink" viewBox="0 0 650 600">
  <defs>
    <filter id="drop-shadow-1" x="-3.5" y="12" width="655" height="574" filterUnits="userSpaceOnUse">
      <feOffset dx="0" dy="0"/>
      <feGaussianBlur result="blur" stdDeviation="9"/>
      <feFlood flood-color="#000" flood-opacity=".45"/>
      <feComposite in2="blur" operator="in"/>
      <feComposite in="SourceGraphic"/>
    </filter>
    <linearGradient id="New_Gradient_Swatch_1" data-name="New Gradient Swatch 1" x1="24.197" y1="299.037" x2="624.197" y2="299.037" gradientUnits="userSpaceOnUse">
      <stop offset=".014" stop-color="#fba01d"/>
      <stop offset=".791" stop-color="#ed2437"/>
    </linearGradient>
    <linearGradient id="New_Gradient_Swatch_1-2" data-name="New Gradient Swatch 1" x1="324.197" y1="39.23" x2="324.197" y2="558.845" xlink:href="#New_Gradient_Swatch_1"/>
  </defs>
  <g id="Layer_1" data-name="Layer 1">
    <polygon points="173.197 558.845 473.197 558.845 623.197 299.037 473.197 39.23 173.197 39.23 23.197 299.037 173.197 558.845" fill="#008c78"/>
  </g>
  <g id="Layer_3" data-name="Layer 3">
    <polygon points="174.064 558.615 474.064 558.615 624.064 298.808 474.064 39 174.064 39 24.064 298.808 174.064 558.615" fill="#fff" filter="url(#drop-shadow-1)"/>
  </g>
  <g id="Layer_1_copy" data-name="Layer 1 copy">
    <g>
      <polygon points="174.197 558.845 474.197 558.845 624.197 299.037 474.197 39.23 174.197 39.23 24.197 299.037 174.197 558.845" fill="url(#New_Gradient_Swatch_1)"/>
      <path d="M471.888,43.23l147.691,255.808-147.691,255.808H176.507L28.816,299.037,176.507,43.23h295.381M474.197,39.23H174.197L24.197,299.037l150,259.808h300l150-259.808L474.197,39.23h0Z" fill="url(#New_Gradient_Swatch_1-2)"/>
    </g>
  </g>
</svg>